<?xml version="1.0" encoding="iso-8859-1"?>
<!-- Generator: Adobe Illustrator 19.0.0, SVG Export Plug-In . SVG Version: 6.00 Build 0)  -->
<svg version="1.1" id="Layer_1" xmlns="http://www.w3.org/2000/svg" xmlns:xlink="http://www.w3.org/1999/xlink" x="0px" y="0px"
	 viewBox="0 0 503.425 503.425" style="enable-background:new 0 0 503.425 503.425;" xml:space="preserve">
<g>
	<path style="fill:#F8D832;" d="M355.848,399.29c0-57.509-46.627-104.136-104.136-104.136S147.577,341.781,147.577,399.29
		s46.627,104.136,104.136,104.136S355.848,456.799,355.848,399.29"/>
	<path style="fill:#C4A316;" d="M251.713,321.188l17.425,52.068h51.998l-43.39,34.712l17.356,52.068l-43.39-26.034l-43.39,26.034
		l17.356-52.068l-43.39-34.712h51.998L251.713,321.188z"/>
	<path style="fill:#CA3E49;" d="M329.814,43.39V26.034H173.611V43.39h-8.678v156.203h8.678v17.356h156.203v-17.356h8.678V43.39
		H329.814z"/>
	<g>
		<path style="fill:#FBF4FB;" d="M164.933,173.35h173.559v-34.504H164.933V173.35z"/>
		<path style="fill:#FBF4FB;" d="M164.933,104.135h173.559V69.423H164.933V104.135z"/>
	</g>
	<g>
		<path style="fill:#9B2432;" d="M329.814,199.593v17.356H173.611v-17.356h-26.034v43.494h208.271v-43.494H329.814z"/>
		<path style="fill:#9B2432;" d="M173.611,43.39V26.034h156.203V43.39h26.034V0H147.577v43.39H173.611z"/>
	</g>
	<path style="fill:#A5A5A5;" d="M277.747,269.12c0-14.379-11.655-26.034-26.034-26.034c-14.379,0-26.034,11.654-26.034,26.034
		s11.655,26.034,26.034,26.034C266.092,295.154,277.747,283.5,277.747,269.12"/>
</g>
<g>
</g>
<g>
</g>
<g>
</g>
<g>
</g>
<g>
</g>
<g>
</g>
<g>
</g>
<g>
</g>
<g>
</g>
<g>
</g>
<g>
</g>
<g>
</g>
<g>
</g>
<g>
</g>
<g>
</g>
</svg>
